<mxfile host="app.diagrams.net" agent="Mozilla/5.0 (Windows NT 10.0; Win64; x64) AppleWebKit/537.36 (KHTML, like Gecko) Chrome/127.0.0.0 Safari/537.36" version="24.7.6" pages="2">
  <diagram name="Internal Components" id="SVTIG_j5iRIldBf4PV46">
    <mxGraphModel dx="1834" dy="1251" grid="1" gridSize="10" guides="1" tooltips="1" connect="1" arrows="1" fold="1" page="0" pageScale="1" pageWidth="850" pageHeight="1100" math="0" shadow="0">
      <root>
        <mxCell id="0" />
        <mxCell id="1" parent="0" />
        <mxCell id="zsZPfzJJ0poghbLlWT55-2" style="edgeStyle=orthogonalEdgeStyle;rounded=0;orthogonalLoop=1;jettySize=auto;html=1;entryX=0.5;entryY=0;entryDx=0;entryDy=0;" parent="1" source="eKQvxoxaIwAKukbmLZEx-1" target="zsZPfzJJ0poghbLlWT55-1" edge="1">
          <mxGeometry relative="1" as="geometry" />
        </mxCell>
        <mxCell id="zsZPfzJJ0poghbLlWT55-3" value="listen" style="edgeLabel;html=1;align=center;verticalAlign=middle;resizable=0;points=[];" parent="zsZPfzJJ0poghbLlWT55-2" vertex="1" connectable="0">
          <mxGeometry x="-0.3333" relative="1" as="geometry">
            <mxPoint as="offset" />
          </mxGeometry>
        </mxCell>
        <mxCell id="zsZPfzJJ0poghbLlWT55-9" style="edgeStyle=orthogonalEdgeStyle;rounded=0;orthogonalLoop=1;jettySize=auto;html=1;entryX=0.25;entryY=1;entryDx=0;entryDy=0;exitX=0.5;exitY=0;exitDx=0;exitDy=0;" parent="1" source="eKQvxoxaIwAKukbmLZEx-1" target="zsZPfzJJ0poghbLlWT55-8" edge="1">
          <mxGeometry relative="1" as="geometry" />
        </mxCell>
        <mxCell id="eKQvxoxaIwAKukbmLZEx-1" value="File System&lt;div&gt;EventSource&lt;/div&gt;" style="rounded=0;whiteSpace=wrap;html=1;" parent="1" vertex="1">
          <mxGeometry x="-360" y="290" width="120" height="60" as="geometry" />
        </mxCell>
        <mxCell id="zsZPfzJJ0poghbLlWT55-1" value="" style="image;html=1;image=img/lib/clip_art/general/Full_Folder_128x128.png" parent="1" vertex="1">
          <mxGeometry x="-340" y="420" width="80" height="80" as="geometry" />
        </mxCell>
        <mxCell id="zsZPfzJJ0poghbLlWT55-6" style="edgeStyle=orthogonalEdgeStyle;rounded=0;orthogonalLoop=1;jettySize=auto;html=1;" parent="1" source="zsZPfzJJ0poghbLlWT55-4" target="zsZPfzJJ0poghbLlWT55-5" edge="1">
          <mxGeometry relative="1" as="geometry" />
        </mxCell>
        <mxCell id="zsZPfzJJ0poghbLlWT55-7" value="listen" style="edgeLabel;html=1;align=center;verticalAlign=middle;resizable=0;points=[];" parent="zsZPfzJJ0poghbLlWT55-6" vertex="1" connectable="0">
          <mxGeometry x="-0.2987" y="1" relative="1" as="geometry">
            <mxPoint as="offset" />
          </mxGeometry>
        </mxCell>
        <mxCell id="zsZPfzJJ0poghbLlWT55-10" style="edgeStyle=orthogonalEdgeStyle;rounded=0;orthogonalLoop=1;jettySize=auto;html=1;entryX=0.75;entryY=1;entryDx=0;entryDy=0;exitX=0.5;exitY=0;exitDx=0;exitDy=0;" parent="1" source="zsZPfzJJ0poghbLlWT55-4" target="zsZPfzJJ0poghbLlWT55-8" edge="1">
          <mxGeometry relative="1" as="geometry" />
        </mxCell>
        <mxCell id="zsZPfzJJ0poghbLlWT55-4" value="&lt;div&gt;Http Endpoint&lt;/div&gt;&lt;div&gt;EventSource&lt;/div&gt;" style="rounded=0;whiteSpace=wrap;html=1;" parent="1" vertex="1">
          <mxGeometry x="-60" y="290" width="120" height="60" as="geometry" />
        </mxCell>
        <mxCell id="zsZPfzJJ0poghbLlWT55-5" value="" style="outlineConnect=0;dashed=0;verticalLabelPosition=bottom;verticalAlign=top;align=center;html=1;shape=mxgraph.aws3.http_protocol;fillColor=#5294CF;gradientColor=none;" parent="1" vertex="1">
          <mxGeometry x="-31.5" y="427" width="63" height="66" as="geometry" />
        </mxCell>
        <mxCell id="zsZPfzJJ0poghbLlWT55-12" style="edgeStyle=orthogonalEdgeStyle;rounded=0;orthogonalLoop=1;jettySize=auto;html=1;entryX=0.5;entryY=1;entryDx=0;entryDy=0;" parent="1" source="zsZPfzJJ0poghbLlWT55-8" target="zsZPfzJJ0poghbLlWT55-11" edge="1">
          <mxGeometry relative="1" as="geometry" />
        </mxCell>
        <mxCell id="zsZPfzJJ0poghbLlWT55-8" value="EventTimeoutDetector" style="rounded=0;whiteSpace=wrap;html=1;" parent="1" vertex="1">
          <mxGeometry x="-210" y="150" width="140" height="60" as="geometry" />
        </mxCell>
        <mxCell id="zsZPfzJJ0poghbLlWT55-17" style="edgeStyle=orthogonalEdgeStyle;rounded=0;orthogonalLoop=1;jettySize=auto;html=1;entryX=0.5;entryY=1;entryDx=0;entryDy=0;" parent="1" source="zsZPfzJJ0poghbLlWT55-11" target="zsZPfzJJ0poghbLlWT55-14" edge="1">
          <mxGeometry relative="1" as="geometry" />
        </mxCell>
        <mxCell id="zsZPfzJJ0poghbLlWT55-11" value="VideoEventHandler" style="rounded=0;whiteSpace=wrap;html=1;" parent="1" vertex="1">
          <mxGeometry x="-200" y="10" width="120" height="60" as="geometry" />
        </mxCell>
        <mxCell id="zsZPfzJJ0poghbLlWT55-13" value="onStart&lt;div&gt;onEnd&lt;/div&gt;" style="text;html=1;align=center;verticalAlign=middle;whiteSpace=wrap;rounded=0;" parent="1" vertex="1">
          <mxGeometry x="-120" y="100" width="60" height="30" as="geometry" />
        </mxCell>
        <mxCell id="zsZPfzJJ0poghbLlWT55-14" value="VideoRecorderService" style="rounded=0;whiteSpace=wrap;html=1;" parent="1" vertex="1">
          <mxGeometry x="-310" y="-120" width="150" height="40" as="geometry" />
        </mxCell>
        <mxCell id="zsZPfzJJ0poghbLlWT55-15" value="" style="shape=cylinder3;whiteSpace=wrap;html=1;boundedLbl=1;backgroundOutline=1;size=15;" parent="1" vertex="1">
          <mxGeometry x="-91" y="-150" width="91" height="70" as="geometry" />
        </mxCell>
        <mxCell id="zsZPfzJJ0poghbLlWT55-16" style="edgeStyle=orthogonalEdgeStyle;rounded=0;orthogonalLoop=1;jettySize=auto;html=1;entryX=0.5;entryY=1;entryDx=0;entryDy=0;entryPerimeter=0;" parent="1" source="zsZPfzJJ0poghbLlWT55-11" target="zsZPfzJJ0poghbLlWT55-15" edge="1">
          <mxGeometry relative="1" as="geometry" />
        </mxCell>
        <mxCell id="zsZPfzJJ0poghbLlWT55-18" value="cameras:&lt;div&gt;&amp;nbsp; - name: camera1&lt;/div&gt;&lt;div&gt;&amp;nbsp; &amp;nbsp; eventHandler:&lt;/div&gt;&lt;div&gt;&amp;nbsp; &amp;nbsp; &amp;nbsp; &amp;nbsp;eventTimeout: 100s&lt;/div&gt;&lt;div&gt;&lt;br&gt;&lt;/div&gt;&lt;div&gt;&amp;nbsp; &amp;nbsp; videoRecorder:&lt;/div&gt;&lt;div&gt;&amp;nbsp; &amp;nbsp; &amp;nbsp; &amp;nbsp;folderPath:&lt;/div&gt;&lt;div&gt;&amp;nbsp; &amp;nbsp; &amp;nbsp; &amp;nbsp;maxFolderSize: 256MB&lt;/div&gt;&lt;div&gt;&lt;br&gt;&lt;/div&gt;&lt;div&gt;&amp;nbsp; &amp;nbsp; eventSources:&lt;/div&gt;&lt;div&gt;&lt;span style=&quot;white-space: pre;&quot;&gt;&#x9;&lt;/span&gt;- type: FileSystem&lt;br&gt;&lt;/div&gt;&lt;div&gt;&amp;nbsp; &amp;nbsp; &amp;nbsp; &amp;nbsp; &amp;nbsp; folderPath:&amp;nbsp;&amp;nbsp;&lt;/div&gt;&lt;div&gt;&lt;br&gt;&lt;/div&gt;&lt;div&gt;&amp;nbsp; &amp;nbsp; &amp;nbsp; &amp;nbsp; - type: HttpEndpoint&lt;/div&gt;&lt;div&gt;&amp;nbsp; &amp;nbsp; &amp;nbsp; &amp;nbsp; &amp;nbsp; contextPath: /camear1&lt;/div&gt;&lt;div&gt;&amp;nbsp; &amp;nbsp; &amp;nbsp; &amp;nbsp; &amp;nbsp; &amp;nbsp;&lt;/div&gt;&lt;div&gt;&amp;nbsp; &amp;nbsp; &amp;nbsp; &amp;nbsp; &amp;nbsp; &amp;nbsp;&lt;/div&gt;&lt;div&gt;&amp;nbsp; &amp;nbsp;&lt;/div&gt;" style="text;html=1;align=left;verticalAlign=top;whiteSpace=wrap;rounded=0;fontFamily=Courier New;" parent="1" vertex="1">
          <mxGeometry x="220" y="-120" width="350" height="300" as="geometry" />
        </mxCell>
      </root>
    </mxGraphModel>
  </diagram>
  <diagram id="Q76EuFqabqrIWx2bEN2H" name="UI Mockup">
    <mxGraphModel dx="1834" dy="851" grid="1" gridSize="10" guides="1" tooltips="1" connect="1" arrows="1" fold="1" page="0" pageScale="1" pageWidth="850" pageHeight="1100" math="0" shadow="0">
      <root>
        <mxCell id="0" />
        <mxCell id="1" parent="0" />
        <mxCell id="nO7e2hqfjx3pFGbm1uqW-1" value="" style="rounded=0;whiteSpace=wrap;html=1;fillColor=#fff2cc;strokeColor=#d6b656;" vertex="1" parent="1">
          <mxGeometry x="-40" y="80" width="400" height="640" as="geometry" />
        </mxCell>
        <mxCell id="nO7e2hqfjx3pFGbm1uqW-2" value="Video" style="rounded=0;whiteSpace=wrap;html=1;fillColor=#f5f5f5;fontColor=#333333;strokeColor=#666666;" vertex="1" parent="1">
          <mxGeometry y="130" width="320" height="280" as="geometry" />
        </mxCell>
        <mxCell id="nO7e2hqfjx3pFGbm1uqW-3" value="Camera 1" style="rounded=0;whiteSpace=wrap;html=1;" vertex="1" parent="1">
          <mxGeometry y="90" width="90" height="30" as="geometry" />
        </mxCell>
        <mxCell id="nO7e2hqfjx3pFGbm1uqW-4" value="Camera 2" style="rounded=0;whiteSpace=wrap;html=1;" vertex="1" parent="1">
          <mxGeometry x="90" y="90" width="90" height="30" as="geometry" />
        </mxCell>
        <mxCell id="nO7e2hqfjx3pFGbm1uqW-6" value="Date" style="rounded=0;whiteSpace=wrap;html=1;" vertex="1" parent="1">
          <mxGeometry x="200" y="430" width="120" height="30" as="geometry" />
        </mxCell>
        <mxCell id="nO7e2hqfjx3pFGbm1uqW-7" value="" style="rounded=0;whiteSpace=wrap;html=1;" vertex="1" parent="1">
          <mxGeometry y="480" width="320" height="40" as="geometry" />
        </mxCell>
        <mxCell id="nO7e2hqfjx3pFGbm1uqW-8" value="Online" style="rounded=0;whiteSpace=wrap;html=1;" vertex="1" parent="1">
          <mxGeometry y="430" width="120" height="30" as="geometry" />
        </mxCell>
        <mxCell id="nO7e2hqfjx3pFGbm1uqW-9" value="12:00" style="rounded=0;whiteSpace=wrap;html=1;" vertex="1" parent="1">
          <mxGeometry x="15" y="550" width="90" height="20" as="geometry" />
        </mxCell>
        <mxCell id="nO7e2hqfjx3pFGbm1uqW-10" value="12:15" style="rounded=0;whiteSpace=wrap;html=1;" vertex="1" parent="1">
          <mxGeometry x="110" y="550" width="90" height="20" as="geometry" />
        </mxCell>
        <mxCell id="nO7e2hqfjx3pFGbm1uqW-11" value="" style="rounded=0;whiteSpace=wrap;html=1;fillColor=#dae8fc;strokeColor=#6c8ebf;" vertex="1" parent="1">
          <mxGeometry x="80" y="480" width="20" height="40" as="geometry" />
        </mxCell>
        <mxCell id="nO7e2hqfjx3pFGbm1uqW-12" value="" style="rounded=0;whiteSpace=wrap;html=1;fillColor=#dae8fc;strokeColor=#6c8ebf;" vertex="1" parent="1">
          <mxGeometry x="140" y="480" width="20" height="40" as="geometry" />
        </mxCell>
        <mxCell id="nO7e2hqfjx3pFGbm1uqW-13" value="" style="rounded=0;whiteSpace=wrap;html=1;" vertex="1" parent="1">
          <mxGeometry y="550" width="10" height="50" as="geometry" />
        </mxCell>
      </root>
    </mxGraphModel>
  </diagram>
</mxfile>
